<svg width="18" height="18" viewBox="0 0 18 18" fill="none" xmlns="http://www.w3.org/2000/svg">
<path d="M17.1251 0.5625H5.87507C5.79219 0.5625 5.71271 0.595424 5.6541 0.654029C5.5955 0.712634 5.56257 0.79212 5.56257 0.875V9.9375H2.43757C2.18902 9.93777 1.95072 10.0366 1.77496 10.2124C1.59921 10.3881 1.50035 10.6264 1.50007 10.875C1.50109 11.0365 1.54434 11.195 1.62551 11.3346C1.44416 11.4459 1.30709 11.6168 1.23772 11.8179C1.16835 12.0191 1.17098 12.2381 1.24517 12.4375H0.875074C0.830428 12.4375 0.786306 12.4471 0.745678 12.4656C0.70505 12.4841 0.668861 12.5111 0.639546 12.5448C0.610231 12.5785 0.588472 12.618 0.575734 12.6608C0.562996 12.7036 0.559574 12.7487 0.565699 12.7929L1.17195 17.1679C1.1823 17.2426 1.21932 17.311 1.27618 17.3606C1.33304 17.4101 1.4059 17.4375 1.48132 17.4375H17.1251C17.208 17.4375 17.2874 17.4046 17.346 17.346C17.4047 17.2874 17.4376 17.2079 17.4376 17.125V0.875C17.4376 0.79212 17.4047 0.712634 17.346 0.654029C17.2874 0.595424 17.208 0.5625 17.1251 0.5625ZM6.18757 1.1875H16.8126V3.0625H6.18757V1.1875ZM6.18757 3.6875H16.8126V15.5625H8.26329L8.64695 12.7929C8.65308 12.7487 8.64965 12.7036 8.63692 12.6608C8.62418 12.618 8.60242 12.5785 8.5731 12.5448C8.54379 12.5111 8.5076 12.4841 8.46697 12.4656C8.42634 12.4471 8.38222 12.4375 8.33757 12.4375H7.47101C7.37837 12.0722 7.1629 11.75 6.86076 11.5248C6.98894 11.3927 7.07534 11.2258 7.10914 11.0449C7.14294 10.8641 7.12265 10.6772 7.0508 10.5078C6.97895 10.3384 6.85873 10.1939 6.70519 10.0925C6.55164 9.99103 6.3716 9.93713 6.18757 9.9375V3.6875ZM5.87507 11.8125C6.07543 11.8132 6.27115 11.8728 6.43786 11.9839C6.60457 12.0951 6.73488 12.2528 6.81257 12.4375H4.93757C5.01526 12.2528 5.14558 12.0951 5.31229 11.9839C5.47899 11.8728 5.67472 11.8132 5.87507 11.8125ZM2.43757 10.5625H6.18757C6.27045 10.5625 6.34994 10.5954 6.40855 10.654C6.46715 10.7126 6.50007 10.7921 6.50007 10.875C6.50007 10.9579 6.46715 11.0374 6.40855 11.096C6.34994 11.1546 6.27045 11.1875 6.18757 11.1875H2.43757C2.35469 11.1875 2.27521 11.1546 2.2166 11.096C2.158 11.0374 2.12507 10.9579 2.12507 10.875C2.12507 10.7921 2.158 10.7126 2.2166 10.654C2.27521 10.5954 2.35469 10.5625 2.43757 10.5625ZM1.81257 12.125C1.81265 12.0421 1.8456 11.9627 1.90419 11.9041C1.96277 11.8455 2.04222 11.8126 2.12507 11.8125H4.59098C4.44316 11.9959 4.33678 12.2091 4.27914 12.4375H3.86823C3.82698 12.4368 3.78601 12.4444 3.74776 12.4599C3.70951 12.4754 3.67475 12.4983 3.64555 12.5275C3.61635 12.5566 3.5933 12.5913 3.57777 12.6296C3.56224 12.6678 3.55454 12.7087 3.55514 12.75V14C3.55514 14.0829 3.52221 14.1624 3.46361 14.221C3.405 14.2796 3.32552 14.3125 3.24264 14.3125C3.15976 14.3125 3.08027 14.2796 3.02167 14.221C2.96306 14.1624 2.93014 14.0829 2.93014 14V12.7778C2.93104 12.7686 2.93136 12.7593 2.93136 12.75C2.93136 12.6671 2.89843 12.5876 2.83983 12.529C2.78122 12.4704 2.70174 12.4375 2.61886 12.4375H2.12507C2.04222 12.4374 1.96277 12.4045 1.90419 12.3459C1.8456 12.2873 1.81265 12.2079 1.81257 12.125ZM1.75367 16.8125L1.23395 13.0625H2.30514V14C2.30514 14.2486 2.40391 14.4871 2.57972 14.6629C2.75554 14.8387 2.994 14.9375 3.24264 14.9375C3.49128 14.9375 3.72973 14.8387 3.90555 14.6629C4.08136 14.4871 4.18014 14.2486 4.18014 14V13.0625H7.97864L7.45923 16.8125H1.75367ZM16.8126 16.8125H8.09014L8.17673 16.1875H16.8126V16.8125Z" fill="#404040"/>
<path d="M11.5 13.375C12.2417 13.375 12.9667 13.1551 13.5834 12.743C14.2001 12.331 14.6807 11.7453 14.9645 11.0601C15.2484 10.3748 15.3226 9.62084 15.1779 8.89341C15.0333 8.16598 14.6761 7.4978 14.1517 6.97335C13.6272 6.4489 12.959 6.09175 12.2316 5.94706C11.5042 5.80236 10.7502 5.87662 10.0649 6.16045C9.37971 6.44428 8.79404 6.92493 8.38199 7.54161C7.96993 8.1583 7.75 8.88332 7.75 9.625C7.75111 10.6192 8.14655 11.5724 8.84957 12.2754C9.5526 12.9784 10.5058 13.3739 11.5 13.375ZM11.5 6.5C12.1181 6.5 12.7223 6.68328 13.2362 7.02666C13.7501 7.37004 14.1506 7.8581 14.3871 8.42912C14.6236 9.00013 14.6855 9.62847 14.565 10.2347C14.4444 10.8408 14.1467 11.3977 13.7097 11.8347C13.2727 12.2717 12.7158 12.5694 12.1097 12.69C11.5035 12.8105 10.8751 12.7486 10.3041 12.5121C9.73309 12.2756 9.24504 11.8751 8.90166 11.3612C8.55828 10.8473 8.375 10.2431 8.375 9.625C8.37594 8.79649 8.70549 8.00218 9.29133 7.41633C9.87718 6.83049 10.6715 6.50094 11.5 6.5Z" fill="#404040"/>
<path d="M11.5 12.125C11.9945 12.125 12.4778 11.9784 12.8889 11.7037C13.3 11.429 13.6205 11.0385 13.8097 10.5817C13.9989 10.1249 14.0484 9.62223 13.952 9.13728C13.8555 8.65232 13.6174 8.20687 13.2678 7.85723C12.9181 7.5076 12.4727 7.2695 11.9877 7.17304C11.5028 7.07657 11.0001 7.12608 10.5433 7.3153C10.0865 7.50452 9.69603 7.82495 9.42133 8.23608C9.14662 8.6472 9 9.13055 9 9.625C9.00076 10.2878 9.2644 10.9233 9.73307 11.3919C10.2018 11.8606 10.8372 12.1242 11.5 12.125ZM11.5 11.5C11.0673 11.4994 10.6481 11.3495 10.3132 11.0754C9.97831 10.8014 9.74835 10.4201 9.66219 9.99606C10.3006 10.1477 10.9683 10.1225 11.5934 9.92316C11.8836 9.82184 12.1896 9.77377 12.4969 9.78125C12.7868 9.7739 13.0758 9.81664 13.3512 9.9076C13.2835 10.3503 13.0596 10.7541 12.7201 11.0462C12.3806 11.3382 11.9478 11.4992 11.5 11.5ZM11.5 7.75C11.9327 7.75057 12.3519 7.90055 12.6868 8.17459C13.0217 8.44862 13.2516 8.8299 13.3378 9.25394C12.6994 9.10234 12.0317 9.12755 11.4066 9.32684C11.1164 9.42816 10.8104 9.47623 10.5031 9.46875C10.2132 9.4761 9.92417 9.43336 9.64878 9.34241C9.71651 8.89972 9.94036 8.49586 10.2799 8.20382C10.6194 7.91177 11.0522 7.7508 11.5 7.75Z" fill="#404040"/>
<path d="M10.5625 1.8125H7.125C7.04212 1.8125 6.96263 1.84542 6.90403 1.90403C6.84542 1.96263 6.8125 2.04212 6.8125 2.125C6.8125 2.20788 6.84542 2.28737 6.90403 2.34597C6.96263 2.40458 7.04212 2.4375 7.125 2.4375H10.5625C10.6454 2.4375 10.7249 2.40458 10.7835 2.34597C10.8421 2.28737 10.875 2.20788 10.875 2.125C10.875 2.04212 10.8421 1.96263 10.7835 1.90403C10.7249 1.84542 10.6454 1.8125 10.5625 1.8125Z" fill="#404040"/>
<path d="M15.5625 2.75C15.9077 2.75 16.1875 2.47018 16.1875 2.125C16.1875 1.77982 15.9077 1.5 15.5625 1.5C15.2173 1.5 14.9375 1.77982 14.9375 2.125C14.9375 2.47018 15.2173 2.75 15.5625 2.75Z" fill="#404040"/>
<path d="M13.6875 2.75C14.0327 2.75 14.3125 2.47018 14.3125 2.125C14.3125 1.77982 14.0327 1.5 13.6875 1.5C13.3423 1.5 13.0625 1.77982 13.0625 2.125C13.0625 2.47018 13.3423 2.75 13.6875 2.75Z" fill="#404040"/>
</svg>
